<?xml version="1.0" encoding="UTF-8"?><svg id="uuid-230dfb13-d45c-476d-a51c-bf92e95dfa48" xmlns="http://www.w3.org/2000/svg" viewBox="0 0 214.42 214.4"><path d="M132.66,107.21L212.3,27.57c2.83-2.83,2.83-7.4,0-10.23l-15.22-15.23c-1.36-1.35-3.2-2.12-5.12-2.12s-3.76,.76-5.12,2.12L107.21,81.76,27.57,2.12c-1.36-1.35-3.2-2.12-5.12-2.12s-3.76,.76-5.12,2.12L2.12,17.34c-2.83,2.83-2.83,7.4,0,10.23L81.76,107.21,2.13,186.83c-2.83,2.83-2.83,7.4,0,10.23l15.22,15.23c1.35,1.35,3.19,2.12,5.12,2.12s3.76-.76,5.12-2.12l79.63-79.63,79.63,79.63c1.36,1.35,3.2,2.12,5.12,2.12s3.76-.76,5.12-2.12l15.22-15.23c2.83-2.83,2.83-7.4,0-10.23l-79.63-79.62Z"/></svg>